<svg xmlns="http://www.w3.org/2000/svg" viewBox="0 0 382.92 382.93"><defs><style>.cls-1{fill:rgb(82, 45, 91);}</style></defs><title>instagram</title><g id="Layer_2" data-name="Layer 2"><g id="Layer_1-2" data-name="Layer 1"><path class="cls-1" d="M0,191.05V40.34C0,21,14.75,3.67,33.88.62a50.45,50.45,0,0,1,8-.62Q191.29,0,340.75,0C365,0,382.89,17.9,382.91,42.16q0,75.72,0,151.45,0,73.61,0,147.21c0,24.13-18,42.1-42.2,42.1H41.8C17.9,382.93,0,365,0,341ZM189.24,328.11c18.81,0,35.39-.09,52-.63,9.24-.31,18.47-.91,27.52-3,22.6-5.14,39.58-17.66,50-38.57,6-12.08,8.1-25.16,8.57-38.47,1.13-32,1.1-64,.55-95.95-.17-10.07-.42-20.15-1.88-30.15C323.85,107,319,93.76,309.57,82.55c-13.46-15.93-31.07-23.74-51.49-26-14.52-1.58-29.1-1.7-43.67-1.86-22.91-.26-45.82-.16-68.72.5-11,.31-22,.77-32.73,3.38C89.51,64.3,72.5,77.85,62.74,100,57.49,112,56,124.7,55.54,137.58c-1.15,32.72-1.12,65.46-.42,98.2a195.13,195.13,0,0,0,2.37,28.85c3.42,19.85,12.75,36.07,29.23,47.95,13.74,9.91,29.53,13.41,46.05,14.42C152.32,328.19,171.9,328,189.24,328.11Z"/><path class="cls-1" d="M79.2,191.21c-.2-17.4-.34-34.81.79-52.2.55-8.48,1.17-17,3.83-25.12,5.86-17.83,18.34-28.24,36.67-31.77,13.23-2.55,26.65-2.87,40.05-3q30.74-.28,61.48,0a271.57,271.57,0,0,1,40.56,2.93c18.79,3,34,17.74,37.87,37.09,3,15.21,3.37,30.63,3.2,46-.27,23.24.64,46.49-.27,69.72-.47,12.06-.87,24.21-4.91,35.74-5,14.29-15.1,23.67-29.42,28.39-8.61,2.84-17.62,3.61-26.6,4-31.3,1.22-62.63.67-93.94.36-10.21-.1-20.49-.73-30.49-3.22C97.56,295,85.73,281.78,82,261.28c-3.14-17.39-2.8-35-2.83-52.57C79.19,202.88,79.2,197.05,79.2,191.21Zm42.19-.24A69.86,69.86,0,0,0,192,261.5c38.68-.29,70-32,69.53-70.1-.51-39.29-32-70.48-70.4-70.1C151,121.69,121,154.79,121.39,191Zm142.92-89a16.48,16.48,0,0,0-16.26,16.46c0,9,7.68,16.32,17,16.25,8.35-.07,15.81-7.76,15.72-16.25A16.39,16.39,0,0,0,264.31,102Z"/><path class="cls-1" d="M145.9,191c-.43-23.79,20-44.62,44.2-45.14,25.82-.55,46.44,19.47,46.91,45.55.43,24.51-19.95,45.28-45,45.63A45.42,45.42,0,0,1,145.9,191Z"/></g></g></svg>