<svg xmlns="http://www.w3.org/2000/svg" viewBox="0 0 383.04 383.05"><defs><style>.cls-1{fill:rgb(82, 45, 91)}</style></defs><title>linkedin</title><g id="Layer_2" data-name="Layer 2"><g id="Layer_1-2" data-name="Layer 1"><path class="cls-1" d="M191.66.13C246,.13,300.29.24,354.6.05a28.23,28.23,0,0,1,26.87,18.62A29.73,29.73,0,0,1,383,28.48q0,163.32,0,326.64C383,371,370.73,383,354.59,383q-68.47,0-136.95,0-94.45,0-188.93,0C15.87,383,5.62,376,1.62,364.41A31.07,31.07,0,0,1,.11,354.09q0-122.2,0-244.41c0-27,.31-54-.12-81A28.61,28.61,0,0,1,28.72,0C83,.33,137.35.13,191.66.13ZM206.5,170.35a4.54,4.54,0,0,1-.5-3c0-6.42-.08-12.83,0-19.24,0-1.92-.48-2.58-2.5-2.57q-24.74.1-49.48,0c-2.17,0-2.59.73-2.57,2.72.09,10.82.05,21.65.05,32.48q0,72.34-.05,144.69c0,2.09.39,2.86,2.7,2.85,17.16-.11,34.32-.07,51.48,0,1.59,0,2.6-.06,2.59-2.19-.07-29.48,0-59-.09-88.46a102.06,102.06,0,0,1,1.47-18.89c3-16.49,11.06-25,26.18-27.29,7-1,14-.85,20.52,2.44,8.43,4.27,11.88,12,13.71,20.66,1.93,9.12,1.73,18.39,1.78,27.62.14,27.74.05,55.47,0,83.21,0,1.71-.07,3,2.38,2.93,17.41-.1,34.82-.07,52.23,0,1.58,0,2.16-.42,2.15-2.09-.1-35.49,0-71-.27-106.45-.09-13.43-1.53-26.77-5.8-39.64-5.94-17.85-17.35-30.23-35.71-35.67a86.42,86.42,0,0,0-33.13-3.11c-17.59,1.71-32.41,9-43.31,23.33C209.05,166.39,207.89,168.3,206.5,170.35ZM59.1,236.89q0,44.22-.05,88.43c0,2.2.45,3,2.83,3q25.6-.16,51.22,0c2.27,0,2.92-.6,2.92-2.91q-.09-88.44,0-176.87c0-2.25-.55-3-2.89-3q-25.6.15-51.21,0c-2.31,0-2.88.65-2.87,2.91Q59.16,192.67,59.1,236.89Zm61.25-149A33.06,33.06,0,0,0,87.76,54.7C69.65,54.58,54.71,69.13,54.59,87c-.13,18.64,14.25,33.44,32.65,33.59A32.92,32.92,0,0,0,120.35,87.93Z"/></g></g></svg>