<?xml version="1.0" encoding="utf-8"?>
<!-- Generator: Adobe Illustrator 24.0.2, SVG Export Plug-In . SVG Version: 6.00 Build 0)  -->
<svg version="1.1" id="Layer_1" xmlns="http://www.w3.org/2000/svg" xmlns:xlink="http://www.w3.org/1999/xlink" x="0px" y="0px"
	 viewBox="0 0 24 24" style="enable-background:new 0 0 24 24;" xml:space="preserve">
<style type="text/css">
	.st0{fill:none;}
	.st1{fill:#FFFFFF;}
</style>
<path class="st0" d="M0,0h24v24H0V0z"/>
<g>
	<path class="st1" d="M17.4,6.8c0,0-0.1,0-0.1,0.1c-0.6,0.6-1.1,1.1-1.7,1.7c-0.2,0.2-0.2,0.5,0,0.7c0.1,0.1,0.2,0.1,0.3,0.1
		c1.6,0,3.2,0,4.8,0c0.3,0,0.4-0.2,0.4-0.4c0-1.6,0-3.1,0-4.7c0-0.2-0.1-0.3-0.3-0.4c-0.2-0.1-0.3-0.1-0.5,0.1
		c-0.3,0.2-0.5,0.5-0.7,0.7c-0.3,0.3-0.6,0.6-0.8,0.8c0,0-0.1,0.1-0.1,0.1c-0.1-0.1-0.2-0.2-0.3-0.3c-1.4-1.3-3-2.1-4.8-2.3
		c-1.7-0.3-3.4-0.1-5,0.6C5.9,4.7,4.1,6.7,3.3,9.4c-0.2,0.7-0.3,1.5-0.4,2.3c-0.1,2.1,0.5,4,1.8,5.7c1.4,1.9,3.3,3.1,5.6,3.6
		c0.9,0.2,1.8,0.2,2.7,0.1c2-0.2,3.7-1,5.2-2.3c0.2-0.1,0.3-0.3,0.2-0.5c0-0.1-0.1-0.1-0.1-0.2c-0.2-0.2-0.4-0.4-0.6-0.6
		c-0.2-0.2-0.4-0.2-0.6,0c-0.4,0.3-0.8,0.6-1.2,0.9c-0.9,0.5-1.8,0.8-2.8,0.9c-1.3,0.2-2.5,0-3.8-0.5c-1.1-0.5-2.1-1.2-2.9-2.1
		c-0.9-1.1-1.5-2.3-1.6-3.7c-0.3-2.4,0.4-4.5,2.1-6.2c1.1-1.1,2.4-1.8,4-2.1c2.4-0.4,4.6,0.3,6.4,1.9C17.3,6.7,17.3,6.7,17.4,6.8
		C17.4,6.8,17.4,6.8,17.4,6.8z"/>
	<path class="st1" d="M13,9.9c0-1,0-2,0-3c0-0.3-0.2-0.5-0.5-0.5c-0.3,0-0.5,0-0.8,0c-0.3,0-0.4,0.2-0.5,0.4c0,0,0,0.1,0,0.1
		c0,1.7,0,3.4,0,5.1c0,0.1,0,0.2-0.1,0.2c-0.8,0.6-1.6,1.1-2.4,1.7c-0.3,0.2-0.3,0.4-0.1,0.7c0.2,0.2,0.3,0.4,0.5,0.6
		c0.2,0.2,0.4,0.3,0.7,0.1c1-0.7,1.9-1.4,2.9-2.1c0.1-0.1,0.3-0.2,0.3-0.3c0.1-0.1,0-0.3,0-0.4C13,11.7,13,10.8,13,9.9z"/>
</g>
<text transform="matrix(1 0 0 1 500 5000)" style="font-family:'MyriadPro-Regular'; font-size:12px;">&lt;iframe src=&quot;https://open.spotify.com/embed-podcast/episode/1d12hQOIs9onUuPnP9Momv&quot; width=&quot;100%&quot; height=&quot;232&quot; frameborder=&quot;0&quot; allowtransparency=&quot;true&quot; allow=&quot;encrypted-media&quot;&gt;&lt;/iframe&gt;</text>
<text transform="matrix(1 0 0 1 500 5000)" style="font-family:'MyriadPro-Regular'; font-size:12px;">&lt;iframe src=&quot;https://open.spotify.com/embed-podcast/episode/1d12hQOIs9onUuPnP9Momv&quot; width=&quot;100%&quot; height=&quot;232&quot; frameborder=&quot;0&quot; allowtransparency=&quot;true&quot; allow=&quot;encrypted-media&quot;&gt;&lt;/iframe&gt;</text>
<text transform="matrix(1 0 0 1 500 5000)" style="font-family:'MyriadPro-Regular'; font-size:12px;">&lt;iframe src=&quot;https://open.spotify.com/embed-podcast/episode/1d12hQOIs9onUuPnP9Momv&quot; width=&quot;100%&quot; height=&quot;232&quot; frameborder=&quot;0&quot; allowtransparency=&quot;true&quot; allow=&quot;encrypted-media&quot;&gt;&lt;/iframe&gt;</text>
</svg>
